<?xml version="1.0" encoding="utf-8"?>
<svg id="Layer_1" x="0px" y="0px" viewBox="-323 44 1160 416" xmlns="http://www.w3.org/2000/svg">
  <g>
    <g>
      <polygon fill="#9A8457" points="451.4,194.5 455.9,190 285.5,190 281.4,194.5 &#9;&#9;"/>
    </g>
    <g>
      <polygon fill="#9A8457" points="184.8,190 184.5,190 184.5,190 67.1,328.4 83.8,190.2 57.9,190.2 53.8,194.6 78.8,194.6 &#10;&#9;&#9;&#9;62.2,334.6 66.6,334.6 186.6,194.5 186.6,194.4 266.4,194.4 271,190 &#9;&#9;"/>
      <g>
        <path fill="#9A8457" d="M451.8,293.1l-1.1,1.4c-21.4,24.2-36,36.8-44.6,36.8c-1.6,0-2.5-0.9-3.3-1.9c-1.9-4,0.9-14.9,15.1-32.5&#10;&#9;&#9;&#9;&#9;l10.9-14.4c4.9-6.5,8.1-12.5,8.1-16.5c0-4.4-3.5-9-10-9c-14.9,0-39.9,18.5-54.8,38.5c-19,22.2-36.9,36.1-45.2,36.1&#10;&#9;&#9;&#9;&#9;c-2.8,0-4.9-0.9-4.9-5.6c0-16.8,32.2-54,40.8-61.9l1.1-1.1l-3.2-4.9l-1.9,1.9c0,0-1.6,1.6-3.2,1.6c-1.1,0-3.5-0.2-5.3-3.5&#10;&#9;&#9;&#9;&#9;c-1.9-3.2-3.5-8.1-0.9-14.4l3.2-5.9l-2.2-0.9l-1.8-1.1c-0.4,0.6-39.8,65.1-78.4,89.8c-6.4,3.6-12,5.6-15.6,6.1&#10;&#9;&#9;&#9;&#9;c-3.4,0.4-6.9-1-6.9-4.5c0-6.8,4.4-16.1,13.6-30.5c9.8-14.4,24.1-34.1,43.4-59.4l30.9-1.6l3.5-4l-30.9,1.6&#10;&#9;&#9;&#9;&#9;c6.7-9,14.4-18.5,22.2-29c1.9-2.1,3.9-4.5,5.8-6.9h-5.5c-9.2,12.1-18.4,24-27.6,36l-23.6,1.1l-4,4.4l24.4-1.1&#10;&#9;&#9;&#9;&#9;c-19,24.4-32.2,42.6-41.5,57c-20.9,23.9-38,36.4-50.2,36.4c-5.9,0-8.4-3.2-8.4-9.8c0-5.9,2.5-14.1,6.8-24.1&#10;&#9;&#9;&#9;&#9;c32-29.9,70-71.5,91.4-99.9l-5.4-0.1c-18,23.5-48.2,58.6-81.1,89.8c16.5-31.5,45.9-71.1,68.5-95.5l4-4.4&#10;&#9;&#9;&#9;&#9;c11.8-12.5,20.9-20.1,24.4-20.1c1.1,0,1.1,0,1.1,1.6c0,2.8-2.5,8.1-7.4,14.9l0,0l-2.5,3.6h5.1l2.5-3.9l0,0&#10;&#9;&#9;&#9;&#9;c4-6.5,6.5-11.8,6.5-14.4c0-4.4-3.2-5.9-5.6-5.9c-5.2,0-16.5,9.8-29.4,23.2l-4.4,4.9c-9.8,10.9-20.1,23.2-29.9,36.1&#10;&#9;&#9;&#9;&#9;c-7.9,11.4-29.9,42-41.5,68.1c-15.1,17.6-31.5,28.5-43.4,28.5c-0.9,0-1.6,0-1.9,0c17.9-16.5,36.9-43.6,36.9-60.2&#10;&#9;&#9;&#9;&#9;c0-6.5-4-9.2-7.6-9.8c-0.2,0-0.9,0-1.1,0c-1.6,0-3.2,0.2-4.9,0.9c-4.9,1.1-10,4.4-15.1,9c-10.5,8.1-20.1,19.2-25.8,26&#10;&#9;&#9;&#9;&#9;c-10.9,12-18.2,26.6-18.2,36.1c0,6.7,4,11.4,10,11.4c5.6,0,12.7-3.5,21.6-10.5c1.9,0.9,4,0.9,5.9,0.9c11.4,0,25.2-8.1,39.4-21.6&#10;&#9;&#9;&#9;&#9;c-1.9,5.6-3.3,10.9-3.3,15.1c0,9,4.9,14.1,12.8,14.1c10.9,0,24.1-8.1,39.9-23.6c-3.2,6.5-4.9,11.8-4.9,16c0,5.6,3.8,7.9,9.2,8.1&#10;&#9;&#9;&#9;&#9;c4.5,0.2,10.8-1,19.4-6.4l0,0c1.2-0.9,2.5-1.6,3.8-2.5c0.6-0.4,1.1-0.9,1.8-1.2c11.5-8.2,23.6-20.1,36.6-35.4&#10;&#9;&#9;&#9;&#9;c2.2-2.5,4.5-5.2,6.9-8.1l23.2-30.9c0,2.8,1.6,8.1,3.3,10c1.9,2.5,4,4,7.6,4c-9,10-37.4,42.6-37.4,60.2c0,5.9,3.2,10,9,10&#10;&#9;&#9;&#9;&#9;c8.1,0,21.4-9,35.9-23.6c-1.6,4.4-2.5,8.4-2.5,12c0,6.5,3.5,11.4,9,11.4c8.1,0,18.5-6.5,31.7-19.2c-2.8,6.8-3.2,12.5-1.1,16&#10;&#9;&#9;&#9;&#9;c1.1,1.9,3.5,3.2,6.5,3.2c10,0,26-12.7,48.2-38.5l0.9-0.9L451.8,293.1z M131.1,333c-2.5,0-5.6-0.9-5.6-6.8c0-9.8,7.6-23.6,19-35&#10;&#9;&#9;&#9;&#9;c-1.9,5.2-3.2,10-3.2,14.9c0,9,2.8,15.1,7.6,19C142,330.2,135.6,333,131.1,333z M152.9,321.9c-4.4-2.5-6.8-8.1-6.8-15.8&#10;&#9;&#9;&#9;&#9;c0-21.6,26.9-47.8,39.9-47.8c1.9,0,4.4,0.9,4.4,5.2C190,278.6,170.5,306.9,152.9,321.9z M369.5,331.2c-3.2,0-4.9-2.5-4.9-6.8&#10;&#9;&#9;&#9;&#9;c0-21.6,40.8-63.1,62.4-63.1c3.5,0,5.6,1.6,5.6,4.4s-2.5,9.2-8.4,15.8L415,294C394.8,318.9,379.6,331.2,369.5,331.2z"/>
      </g>
    </g>
  </g>
</svg>